<svg width="32" height="32" viewBox="0 0 32 32" xmlns="http://www.w3.org/2000/svg">
  <!-- Background circle -->
  <circle cx="16" cy="16" r="15" fill="#0066CC" stroke="#003366" stroke-width="1"/>
  
  <!-- Barclays Eagle (simplified) -->
  <g transform="translate(16, 16) scale(0.4)">
    <!-- Eagle body -->
    <ellipse cx="0" cy="0" rx="20" ry="12" fill="#FFD700"/>
    
    <!-- Eagle wings -->
    <path d="M-20 0 Q-28 -8 -24 -16 Q-20 -12 -16 -8 Q-12 -4 -8 0 Q-12 4 -16 8 Q-20 12 -24 16 Q-28 8 -20 0" fill="#FFD700"/>
    <path d="M20 0 Q28 -8 24 -16 Q20 -12 16 -8 Q12 -4 8 0 Q12 4 16 8 Q20 12 24 16 Q28 8 20 0" fill="#FFD700"/>
    
    <!-- Eagle head -->
    <circle cx="0" cy="-8" r="6" fill="#FFD700"/>
    
    <!-- Eagle beak -->
    <polygon points="0,-14 4,-12 0,-10" fill="#FF6B35"/>
    
    <!-- Eagle eye -->
    <circle cx="-1.5" cy="-10" r="1" fill="#003366"/>
  </g>
</svg> 